<svg width="38" height="38" viewBox="0 0 38 38" fill="none" xmlns="http://www.w3.org/2000/svg">
<g clip-path="url(#clip0_1_513)">
<path fill-rule="evenodd" clip-rule="evenodd" d="M19 8.43872C24.7638 8.43872 29.4648 13.1551 29.4648 18.9378C28.9297 32.8458 9.06805 32.842 8.53516 18.9378C8.53516 13.1551 13.2362 8.43872 19 8.43872Z" fill="#FFEE3F"/>
<path d="M19 38C8.52328 38 0 29.4488 0 18.9386C0.955195 -6.31583 37.0485 -6.30914 38 18.9386C38 29.4488 29.4767 38 19 38ZM34.5243 10.8059L31.9512 12.2988C32.888 14.1301 33.4256 16.1404 33.5283 18.1962H34.1035C35.0869 18.2334 35.0862 19.6497 34.1035 19.6854H33.5283C33.4262 21.7413 32.8885 23.7517 31.9512 25.5828L34.5243 27.072C37.1546 22.273 37.1546 15.6034 34.5243 10.8059ZM19 2.66796C18.8032 2.66796 18.6144 2.58951 18.4752 2.44987C18.336 2.31022 18.2578 2.12083 18.2578 1.92334V1.38052C15.6872 1.48734 13.1723 2.16456 10.8938 3.36343L12.3782 5.94501C16.297 3.83031 21.7001 3.83031 25.6188 5.94501L27.1032 3.36343C24.8257 2.16499 22.3117 1.48778 19.7422 1.38052V1.92334C19.7422 2.12083 19.664 2.31022 19.5248 2.44987C19.3856 2.58951 19.1968 2.66796 19 2.66796ZM19 5.83258C11.7971 5.83258 5.9375 11.715 5.9375 18.9378C6.59434 36.2993 31.4086 36.2948 32.0625 18.9378C32.0625 11.7121 26.2029 5.83258 19 5.83258ZM4.47168 19.6824H1.50293C1.60827 22.2615 2.28308 24.7849 3.47863 27.0705L6.0518 25.5813C5.1133 23.75 4.57463 21.739 4.47168 19.6824ZM33.7799 28.3595L31.2068 26.8702C29.9556 28.8082 28.2641 30.4209 26.2711 31.5758C24.2782 32.7306 22.0406 33.3948 19.7422 33.5137V36.4989C22.3127 36.3923 24.8277 35.7153 27.1062 34.5167L26.8368 34.0416C26.7399 33.8707 26.7143 33.6683 26.7657 33.4785C26.817 33.2887 26.9411 33.1271 27.1109 33.0287C27.2806 32.9304 27.4822 32.9034 27.6717 32.9537C27.8611 33.004 28.0231 33.1274 28.1222 33.297L28.3902 33.7631C30.5577 32.3759 32.3972 30.5304 33.7799 28.3557V28.3595ZM18.2578 36.4989V33.5137C16.2087 33.4114 14.2049 32.8722 12.3797 31.9321L12.091 32.4332C11.9919 32.6029 11.8299 32.7263 11.6404 32.7765C11.4509 32.8268 11.2493 32.7998 11.0796 32.7015C10.9099 32.6032 10.7858 32.4415 10.7344 32.2518C10.6831 32.062 10.7086 31.8596 10.8055 31.6886L11.095 31.1853C9.37473 30.0637 7.90823 28.5924 6.79027 26.8665L4.21711 28.3557C7.20738 33.0602 12.3604 36.2479 18.2578 36.4989ZM1.49996 18.1932H4.46871C4.57238 16.1382 5.11103 14.1288 6.04883 12.2988L5.54859 12.0092C5.37952 11.9097 5.25651 11.7472 5.20642 11.5571C5.15632 11.367 5.18321 11.1648 5.2812 10.9945C5.3792 10.8242 5.54035 10.6997 5.72949 10.6482C5.91863 10.5967 6.12041 10.6223 6.29078 10.7195L6.79324 11.0106C7.9112 9.28477 9.37769 7.81348 11.0979 6.69187L9.61355 4.11028C7.23047 5.62838 5.24825 7.70164 3.83559 10.1536C2.42292 12.6056 1.62165 15.3637 1.49996 18.1932ZM28.3902 4.10805L26.9058 6.68963C28.626 7.8113 30.0925 9.28258 31.2105 11.0084L33.7836 9.51917C32.4005 7.34258 30.5597 5.49574 28.3902 4.10805Z" fill="#1D222D"/>
<path d="M22.4726 19.2848L22.48 19.2886C25.1519 20.4003 25.3783 24.2187 22.8615 25.6483C22.2905 25.9791 21.6389 26.1438 20.9798 26.1239C20.3208 26.104 19.6802 25.9003 19.1301 25.5358C18.5799 25.1712 18.1418 24.66 17.8649 24.0597C17.5879 23.4593 17.4832 22.7935 17.5623 22.1367C17.5623 22.1322 17.5623 22.127 17.5623 22.1226C17.5808 21.9945 17.4881 21.8359 17.3456 21.7503C17.2857 21.7121 17.215 21.6948 17.1444 21.7011C17.0738 21.7075 17.0073 21.737 16.9552 21.7852C16.8416 21.8705 16.7231 21.9491 16.6004 22.0205C15.7847 22.4915 14.8161 22.6187 13.9071 22.3743C12.998 22.1299 12.2226 21.5338 11.7509 20.7167C10.7631 19.0786 11.3799 16.7747 13.0505 15.8514C13.6515 15.5027 14.3412 15.3386 15.0342 15.3794C15.7272 15.4202 16.393 15.664 16.9492 16.0807C17.1222 16.2044 17.2958 16.2297 17.4257 16.1478C17.5415 16.0733 17.592 15.937 17.5645 15.7673C17.5623 15.7572 17.5609 15.747 17.5601 15.7367C17.4835 15.0979 17.5808 14.4502 17.8417 13.8624C18.1026 13.2746 18.5173 12.7686 19.0418 12.3983C19.5663 12.028 20.181 11.8071 20.8206 11.7592C21.4601 11.7112 22.1007 11.8379 22.6742 12.1259C23.2478 12.4138 23.7329 12.8522 24.078 13.3946C24.4231 13.9369 24.6154 14.5629 24.6344 15.2061C24.6533 15.8493 24.4983 16.4856 24.1858 17.0474C23.8732 17.6093 23.4148 18.0758 22.8593 18.3972C22.7419 18.4648 22.621 18.5259 22.4971 18.5804C22.3138 18.6713 22.2188 18.7993 22.2232 18.9527C22.2273 19.0267 22.2529 19.0979 22.297 19.1573C22.3411 19.2168 22.4016 19.2619 22.4711 19.2871L22.4726 19.2848ZM21.8684 17.2319L21.8967 17.2185C21.9731 17.1859 22.0475 17.1486 22.1193 17.1068C22.4419 16.9199 22.7081 16.6489 22.8897 16.3225C23.0712 15.9961 23.1615 15.6266 23.1508 15.253C23.1401 14.8794 23.0289 14.5156 22.8289 14.2002C22.629 13.8849 22.3477 13.6296 22.015 13.4615C21.6822 13.2935 21.3104 13.2188 20.9388 13.2455C20.5672 13.2721 20.2097 13.3991 19.9042 13.613C19.5986 13.8269 19.3565 14.1197 19.2033 14.4604C19.0501 14.8011 18.9916 15.177 19.034 15.5483C19.3057 17.2349 17.4376 18.3086 16.0786 17.2885L16.0675 17.2803C15.7612 17.0512 15.3975 16.9119 15.0169 16.8782C14.6362 16.8444 14.2538 16.9175 13.9122 17.0892C13.5706 17.2609 13.2832 17.5245 13.0823 17.8506C12.8814 18.1766 12.7748 18.5523 12.7743 18.9356C12.7739 19.319 12.8797 19.6949 13.0799 20.0214C13.2801 20.3479 13.5668 20.6121 13.908 20.7846C14.2493 20.9571 14.6316 21.031 15.0122 20.9981C15.3929 20.9652 15.757 20.8268 16.0638 20.5983C16.3504 20.3731 16.6982 20.2401 17.0616 20.2168C17.4249 20.1936 17.7868 20.2811 18.0996 20.468C18.7579 20.8567 19.1327 21.6006 19.0348 22.3221C18.9902 22.7039 19.0523 23.0905 19.2142 23.4389C19.3761 23.7873 19.6313 24.0836 19.9514 24.2948C20.2716 24.5059 20.6439 24.6236 21.0268 24.6347C21.4098 24.6457 21.7883 24.5497 22.1199 24.3574C22.4516 24.165 22.7234 23.8839 22.905 23.5454C23.0866 23.207 23.1708 22.8246 23.1482 22.4409C23.1255 22.0572 22.997 21.6874 22.7769 21.3728C22.5568 21.0582 22.2538 20.8112 21.9018 20.6594C21.5687 20.5232 21.2819 20.2933 21.0759 19.9974C20.87 19.7015 20.7537 19.3521 20.7411 18.9914C20.7203 18.2468 21.153 17.5767 21.8684 17.2319Z" fill="#1D222D"/>
</g>
<defs>
<clipPath id="clip0_1_513">
<rect width="38" height="38" fill="white" transform="matrix(1 0 0 -1 0 38)"/>
</clipPath>
</defs>
</svg>
