<svg width="16" height="17" viewBox="0 0 16 17" fill="none" xmlns="http://www.w3.org/2000/svg">
<path d="M9.35201 15.75H6.14799M12.556 5.48684C12.556 4.23055 12.0497 3.02572 11.1484 2.13739C10.2471 1.24906 9.02464 0.75 7.75 0.75C6.47536 0.75 5.25293 1.24906 4.35163 2.13739C3.45032 3.02572 2.94398 4.23055 2.94398 5.48684C2.94398 7.92646 2.31957 9.59681 1.62205 10.7016C1.03368 11.6336 0.739499 12.0996 0.750286 12.2295C0.76223 12.3735 0.793168 12.4284 0.910848 12.5144C1.01713 12.5921 1.49623 12.5921 2.45445 12.5921H13.0456C14.0038 12.5921 14.4829 12.5921 14.5892 12.5144C14.7068 12.4284 14.7378 12.3735 14.7497 12.2295C14.7605 12.0996 14.4663 11.6336 13.8779 10.7016C13.1804 9.59681 12.556 7.92646 12.556 5.48684Z" stroke="#1D222D" stroke-width="1.5" stroke-linecap="round" stroke-linejoin="round"/>
</svg>
