<svg width="36" height="27" viewBox="0 0 36 27" fill="none" xmlns="http://www.w3.org/2000/svg">
<g clip-path="url(#clip0_1_454)">
<path d="M33.6199 14.3502H23.1567C22.9702 14.3502 22.7914 14.4243 22.6595 14.5561C22.5277 14.6879 22.4536 14.8667 22.4536 15.0532V17.8207H11.8695V15.0532C11.8695 14.8667 11.7954 14.6879 11.6635 14.5561C11.5317 14.4243 11.3528 14.3502 11.1663 14.3502H0.703125C0.516645 14.3502 0.337802 14.4243 0.205941 14.5561C0.074079 14.6879 0 14.8667 0 15.0532L0 26.2935C0 26.48 0.074079 26.6588 0.205941 26.7906C0.337802 26.9224 0.516645 26.9965 0.703125 26.9965H11.1663C11.3528 26.9965 11.5317 26.9224 11.6635 26.7906C11.7954 26.6588 11.8695 26.48 11.8695 26.2935V23.5288H22.4536V26.2935C22.4536 26.48 22.5277 26.6588 22.6595 26.7906C22.7914 26.9224 22.9702 26.9965 23.1567 26.9965H33.6199C33.8064 26.9965 33.9852 26.9224 34.1171 26.7906C34.249 26.6588 34.323 26.48 34.323 26.2935V15.0532C34.323 14.8667 34.249 14.6879 34.1171 14.5561C33.9852 14.4243 33.8064 14.3502 33.6199 14.3502ZM10.4632 25.5906H1.40625V15.7561H10.4632V25.5906ZM11.8695 22.12V19.2238H22.4536V22.12H11.8695ZM32.9168 25.5906H23.8598V15.7561H32.9168V25.5906Z" fill="#1D222D"/>
<path d="M11.3027 8.47559H27.7805C27.9669 8.47559 28.1458 8.40153 28.2777 8.2697C28.4095 8.13787 28.4836 7.95907 28.4836 7.77263C28.4836 7.5862 28.4095 7.4074 28.2777 7.27556C28.1458 7.14373 27.9669 7.06967 27.7805 7.06967H11.3027C11.1163 7.06967 10.9374 7.14373 10.8055 7.27556C10.6737 7.4074 10.5996 7.5862 10.5996 7.77263C10.5996 7.95907 10.6737 8.13787 10.8055 8.2697C10.9374 8.40153 11.1163 8.47559 11.3027 8.47559Z" fill="#1D222D"/>
<path d="M11.3027 4.17277H27.7805C27.9669 4.17277 28.1458 4.0987 28.2777 3.96687C28.4095 3.83504 28.4836 3.65624 28.4836 3.46981C28.4836 3.28337 28.4095 3.10457 28.2777 2.97274C28.1458 2.84091 27.9669 2.76685 27.7805 2.76685H11.3027C11.1163 2.76685 10.9374 2.84091 10.8055 2.97274C10.6737 3.10457 10.5996 3.28337 10.5996 3.46981C10.5996 3.65624 10.6737 3.83504 10.8055 3.96687C10.9374 4.0987 11.1163 4.17277 11.3027 4.17277Z" fill="#1D222D"/>
<path d="M3.08301 0.00280762H13.5462V11.2431H3.08301V0.00280762Z" fill="#89EDFF"/>
<path d="M25.5366 0.00280762H35.9998V11.2431H25.5366V0.00280762Z" fill="#89EDFF"/>
</g>
<defs>
<clipPath id="clip0_1_454">
<rect width="36" height="27" fill="white"/>
</clipPath>
</defs>
</svg>
