<svg width="40" height="33" viewBox="0 0 40 33" fill="none" xmlns="http://www.w3.org/2000/svg">
<g clip-path="url(#clip0_1_421)">
<path d="M2.75938 32.9992H8.40156V9.33337H11.1617L5.58047 0.768555L0 9.32942H2.75938V32.9992Z" fill="#FFA063"/>
<path d="M22.4219 19.6656H30.8203V23.8471H22.4219V19.6656Z" fill="#FFA063"/>
<path d="M22.4219 23.8439H30.8203V28.0262H22.4219V23.8439Z" fill="#FFA063"/>
<path d="M22.4219 28.0262H30.8203V32.2085H22.4219V28.0262Z" fill="#FFA063"/>
<path d="M24.0712 16.4205C28.547 16.4205 32.1876 12.7344 32.1876 8.20785C32.1876 3.68127 28.547 0 24.0712 0C19.5954 0 15.9556 3.68206 15.9556 8.20785C15.9556 12.7336 19.5962 16.4205 24.0712 16.4205ZM24.0712 1.58696C25.3641 1.58962 26.6272 1.98048 27.701 2.71017C28.7747 3.43986 29.6109 4.47561 30.1038 5.68657C30.5967 6.89753 30.7243 8.22934 30.4704 9.51372C30.2165 10.7981 29.5925 11.9774 28.6773 12.9027C27.7621 13.8279 26.5967 14.4575 25.3284 14.712C24.0601 14.9665 22.7458 14.8344 21.5516 14.3324C20.3574 13.8304 19.3369 12.981 18.6189 11.8916C17.901 10.8022 17.5179 9.5217 17.5181 8.21181C17.521 6.45286 18.2126 4.76694 19.4412 3.52414C20.6699 2.28134 22.335 1.58321 24.0712 1.583V1.58696Z" fill="#1D222D"/>
<path d="M22.7232 10.2254C22.6595 10.1424 22.5801 10.0731 22.4896 10.0215C22.3992 9.9699 22.2995 9.9371 22.1964 9.92499C22.0933 9.91288 21.9888 9.92171 21.8891 9.95096C21.7894 9.98021 21.6965 10.0293 21.6157 10.0953C21.535 10.1614 21.468 10.2431 21.4188 10.3356C21.3695 10.4282 21.339 10.5298 21.3289 10.6344C21.3188 10.7391 21.3294 10.8447 21.3601 10.9452C21.3908 11.0456 21.4409 11.1389 21.5076 11.2195C21.9459 11.7736 22.5763 12.0815 23.2037 12.2303C23.2175 12.4249 23.3018 12.6074 23.4404 12.7429C23.579 12.8784 23.7621 12.9572 23.9546 12.9643C24.1471 12.9714 24.3353 12.9062 24.4832 12.7812C24.6312 12.6562 24.7283 12.4803 24.756 12.2872C25.8763 12.0886 26.6623 11.3374 26.7873 10.3085C26.9357 9.12124 26.174 7.98386 24.9349 7.53824L24.7607 7.47572V5.89272C24.8285 5.93061 24.8879 5.98235 24.9349 6.04468C25.0555 6.21273 25.2364 6.32601 25.4387 6.36009C25.641 6.39417 25.8484 6.34631 26.0161 6.22684C26.1839 6.10737 26.2986 5.92587 26.3354 5.7215C26.3722 5.51714 26.3283 5.30629 26.213 5.13446C25.9232 4.71734 25.4169 4.36433 24.7607 4.22107C24.7585 4.01115 24.6741 3.8107 24.5261 3.66383C24.378 3.51695 24.1784 3.43568 23.9712 3.43788C23.764 3.44008 23.5662 3.52559 23.4212 3.67558C23.2762 3.82557 23.196 4.02777 23.1982 4.23769V4.2741C23.1466 4.28835 23.0935 4.30259 23.0419 4.31921C22.2115 4.5717 21.5849 5.38537 21.5185 6.29796C21.4521 7.21056 21.9263 7.9894 22.7865 8.3994C22.8826 8.4453 23.0209 8.50546 23.199 8.5759V10.5713C23.0147 10.4961 22.8508 10.3775 22.7209 10.2254H22.7232ZM25.2404 10.113C25.2099 10.3599 25.0412 10.5467 24.7638 10.6544V9.20989C25.1349 9.46159 25.2763 9.82805 25.2404 10.113ZM23.0795 6.41906C23.0897 6.29523 23.1317 6.17626 23.2013 6.07397V6.79186C23.1559 6.74212 23.1216 6.68312 23.1006 6.61882C23.0795 6.55452 23.0723 6.48641 23.0795 6.41906Z" fill="#1D222D"/>
<path d="M39.2189 14.6887H30.8205C30.6133 14.6887 30.4146 14.7721 30.2681 14.9205C30.1216 15.0689 30.0393 15.2702 30.0393 15.4802V31.417H23.2033V23.8447C23.2033 23.6348 23.121 23.4335 22.9745 23.2851C22.828 23.1366 22.6293 23.0532 22.4221 23.0532H14.0244C13.8172 23.0532 13.6185 23.1366 13.472 23.2851C13.3255 23.4335 13.2432 23.6348 13.2432 23.8447V32.2085C13.2432 32.4184 13.3255 32.6197 13.472 32.7682C13.6185 32.9166 13.8172 33 14.0244 33H39.2189C39.4261 33 39.6249 32.9166 39.7714 32.7682C39.9179 32.6197 40.0002 32.4184 40.0002 32.2085V15.4802C40.0002 15.2702 39.9179 15.0689 39.7714 14.9205C39.6249 14.7721 39.4261 14.6887 39.2189 14.6887ZM38.4377 23.0524H31.6018V20.4571H38.4377V23.0524ZM31.6018 24.6354H38.4377V27.2347H31.6018V24.6354ZM31.6018 16.2717H38.4377V18.8741H31.6018V16.2717ZM14.8049 24.6354H21.6408V27.2347H14.8049V24.6354ZM14.8049 31.4162V28.8177H21.6408V31.4162H14.8049ZM38.4369 31.4162H31.6018V28.8177H38.4377L38.4369 31.4162Z" fill="#1D222D"/>
</g>
<defs>
<clipPath id="clip0_1_421">
<rect width="40" height="33" fill="white"/>
</clipPath>
</defs>
</svg>
