<svg width="17" height="18" viewBox="0 0 17 18" fill="none" xmlns="http://www.w3.org/2000/svg">
<path d="M15.3338 5.02816L8.25046 8.96334M8.25046 8.96334L1.16713 5.02816M8.25046 8.96334L8.25049 16.88M15.7505 12.3455V5.58124C15.7505 5.2957 15.7505 5.15294 15.7084 5.0256C15.6712 4.91296 15.6104 4.80955 15.53 4.72231C15.4391 4.6237 15.3143 4.55436 15.0647 4.4157L8.89801 0.98977C8.66168 0.858471 8.54351 0.792822 8.41837 0.767085C8.30761 0.744305 8.19337 0.744305 8.08261 0.767085C7.95747 0.792822 7.8393 0.858472 7.60297 0.98977L1.4363 4.4157C1.18669 4.55437 1.06189 4.6237 0.971016 4.72231C0.89062 4.80956 0.829778 4.91296 0.792559 5.0256C0.750488 5.15294 0.750488 5.2957 0.750488 5.58124V12.3455C0.750488 12.631 0.750488 12.7738 0.792559 12.9011C0.829778 13.0138 0.89062 13.1172 0.971016 13.2044C1.06189 13.303 1.18669 13.3724 1.4363 13.511L7.60297 16.937C7.8393 17.0683 7.95747 17.1339 8.08261 17.1596C8.19337 17.1824 8.30761 17.1824 8.41837 17.1596C8.54351 17.1339 8.66168 17.0683 8.89801 16.937L15.0647 13.511C15.3143 13.3724 15.4391 13.303 15.53 13.2044C15.6104 13.1172 15.6712 13.0138 15.7084 12.9011C15.7505 12.7738 15.7505 12.631 15.7505 12.3455Z" stroke="#1D222D" stroke-width="1.5" stroke-linecap="round" stroke-linejoin="round"/>
</svg>
