<svg width="17" height="17" viewBox="0 0 17 17" fill="none" xmlns="http://www.w3.org/2000/svg">
<path d="M5.25 0.75H2.08333C1.61662 0.75 1.38327 0.75 1.20501 0.840828C1.04821 0.920722 0.920722 1.04821 0.840828 1.20501C0.75 1.38327 0.75 1.61662 0.75 2.08333V5.25C0.75 5.71671 0.75 5.95007 0.840828 6.12833C0.920722 6.28513 1.04821 6.41261 1.20501 6.49251C1.38327 6.58333 1.61662 6.58333 2.08333 6.58333H5.25C5.71671 6.58333 5.95007 6.58333 6.12833 6.49251C6.28513 6.41261 6.41261 6.28513 6.49251 6.12833C6.58333 5.95007 6.58333 5.71671 6.58333 5.25V2.08333C6.58333 1.61662 6.58333 1.38327 6.49251 1.20501C6.41261 1.04821 6.28513 0.920722 6.12833 0.840828C5.95007 0.75 5.71671 0.75 5.25 0.75Z" stroke="white" stroke-width="1.5" stroke-linecap="round" stroke-linejoin="round"/>
<path d="M14.4167 0.75H11.25C10.7833 0.75 10.5499 0.75 10.3717 0.840828C10.2149 0.920722 10.0874 1.04821 10.0075 1.20501C9.91667 1.38327 9.91667 1.61662 9.91667 2.08333V5.25C9.91667 5.71671 9.91667 5.95007 10.0075 6.12833C10.0874 6.28513 10.2149 6.41261 10.3717 6.49251C10.5499 6.58333 10.7833 6.58333 11.25 6.58333H14.4167C14.8834 6.58333 15.1167 6.58333 15.295 6.49251C15.4518 6.41261 15.5793 6.28513 15.6592 6.12833C15.75 5.95007 15.75 5.71671 15.75 5.25V2.08333C15.75 1.61662 15.75 1.38327 15.6592 1.20501C15.5793 1.04821 15.4518 0.920722 15.295 0.840828C15.1167 0.75 14.8834 0.75 14.4167 0.75Z" stroke="white" stroke-width="1.5" stroke-linecap="round" stroke-linejoin="round"/>
<path d="M14.4167 9.91667H11.25C10.7833 9.91667 10.5499 9.91667 10.3717 10.0075C10.2149 10.0874 10.0874 10.2149 10.0075 10.3717C9.91667 10.5499 9.91667 10.7833 9.91667 11.25V14.4167C9.91667 14.8834 9.91667 15.1167 10.0075 15.295C10.0874 15.4518 10.2149 15.5793 10.3717 15.6592C10.5499 15.75 10.7833 15.75 11.25 15.75H14.4167C14.8834 15.75 15.1167 15.75 15.295 15.6592C15.4518 15.5793 15.5793 15.4518 15.6592 15.295C15.75 15.1167 15.75 14.8834 15.75 14.4167V11.25C15.75 10.7833 15.75 10.5499 15.6592 10.3717C15.5793 10.2149 15.4518 10.0874 15.295 10.0075C15.1167 9.91667 14.8834 9.91667 14.4167 9.91667Z" stroke="white" stroke-width="1.5" stroke-linecap="round" stroke-linejoin="round"/>
<path d="M5.25 9.91667H2.08333C1.61662 9.91667 1.38327 9.91667 1.20501 10.0075C1.04821 10.0874 0.920722 10.2149 0.840828 10.3717C0.75 10.5499 0.75 10.7833 0.75 11.25V14.4167C0.75 14.8834 0.75 15.1167 0.840828 15.295C0.920722 15.4518 1.04821 15.5793 1.20501 15.6592C1.38327 15.75 1.61662 15.75 2.08333 15.75H5.25C5.71671 15.75 5.95007 15.75 6.12833 15.6592C6.28513 15.5793 6.41261 15.4518 6.49251 15.295C6.58333 15.1167 6.58333 14.8834 6.58333 14.4167V11.25C6.58333 10.7833 6.58333 10.5499 6.49251 10.3717C6.41261 10.2149 6.28513 10.0874 6.12833 10.0075C5.95007 9.91667 5.71671 9.91667 5.25 9.91667Z" stroke="white" stroke-width="1.5" stroke-linecap="round" stroke-linejoin="round"/>
</svg>
