<svg width="19" height="19" viewBox="0 0 19 19" fill="none" xmlns="http://www.w3.org/2000/svg">
<path d="M0.75 9.03415L8.78519 13.0517C8.89451 13.1064 8.94917 13.1337 9.0065 13.1445C9.05728 13.154 9.10939 13.154 9.16016 13.1445C9.2175 13.1337 9.27216 13.1064 9.38147 13.0517L17.4167 9.03415M0.75 13.2008L8.78519 17.2184C8.89451 17.2731 8.94917 17.3004 9.0065 17.3112C9.05728 17.3207 9.10939 17.3207 9.16016 17.3112C9.2175 17.3004 9.27216 17.2731 9.38147 17.2184L17.4167 13.2008M0.75 4.86749L8.78519 0.84989C8.89451 0.795231 8.94917 0.767902 9.0065 0.757145C9.05728 0.747618 9.10939 0.747618 9.16016 0.757145C9.2175 0.767902 9.27216 0.795231 9.38147 0.84989L17.4167 4.86749L9.38147 8.88508C9.27216 8.93974 9.2175 8.96707 9.16016 8.97783C9.10939 8.98735 9.05728 8.98735 9.0065 8.97783C8.94917 8.96707 8.89451 8.93974 8.78519 8.88508L0.75 4.86749Z" stroke="#1D222D" stroke-width="1.5" stroke-linecap="round" stroke-linejoin="round"/>
</svg>
