<svg width="38" height="34" viewBox="0 0 38 34" fill="none" xmlns="http://www.w3.org/2000/svg">
<g clip-path="url(#clip0_1_541)">
<path d="M34.295 21.0849L26.0923 23.1332C25.9439 22.0406 25.1275 21.1274 24.0142 21.0885C17.8355 20.8722 14.0258 15.814 6.51862 21.616C6.36459 21.7351 6.26559 21.9088 6.24339 22.0987C6.2324 22.1928 6.24059 22.2881 6.2675 22.3791C6.29442 22.47 6.33952 22.555 6.40024 22.6291C6.46096 22.7031 6.53611 22.7648 6.6214 22.8107C6.70668 22.8566 6.80043 22.8857 6.8973 22.8963C7.09292 22.9179 7.28936 22.8631 7.44339 22.744C14.293 17.4494 17.2774 22.2928 23.96 22.5278C24.5382 22.548 24.8455 23.5959 24.4796 23.9333C23.4056 24.9106 21.5108 24.9517 20.5148 24.6677C18.0107 23.957 15.8924 24.0616 14.2181 24.9791C14.0466 25.073 13.9206 25.2293 13.8678 25.4134C13.815 25.5976 13.8397 25.7946 13.9364 25.9611C14.0332 26.1276 14.1941 26.2499 14.3837 26.3012C14.5733 26.3525 14.7762 26.3286 14.9476 26.2346C16.2784 25.5052 17.9632 25.4454 20.0984 26.0515C21.3935 26.4191 23.8999 26.4379 25.4949 24.9841C25.5849 24.9006 25.6662 24.8086 25.7376 24.7095L34.6809 22.4752C34.8984 22.4183 35.1264 22.4112 35.3471 22.4544C35.5679 22.4976 35.7753 22.5899 35.9531 22.7241C36.1309 22.8582 36.2742 23.0306 36.3718 23.2277C36.4694 23.4247 36.5187 23.6411 36.5156 23.8597C26.335 28.3933 22.4014 31.3008 14.4504 30.1195C9.63803 29.4059 7.05745 30.7429 6.56018 30.8402C6.37898 30.875 6.21764 30.9742 6.1077 31.1183C5.99776 31.2624 5.94712 31.4412 5.96567 31.6197C5.98422 31.7982 6.07064 31.9635 6.20803 32.0834C6.34542 32.2033 6.52391 32.2691 6.70862 32.268C7.39589 32.268 9.43913 30.8316 14.2299 31.5422C22.7933 32.8144 27.1537 29.584 37.5049 25.005C37.6068 24.9599 37.6968 24.8931 37.7682 24.8095C37.8397 24.7258 37.8908 24.6276 37.9176 24.5221C38.4535 22.4154 36.4644 20.5183 34.3009 21.0827L34.295 21.0849Z" fill="#1D222D"/>
<path d="M19.6294 18.0779C21.339 18.0733 22.9953 17.4999 24.3222 16.4531C25.6491 15.4064 26.5665 13.9496 26.9214 12.3256C26.9413 12.2329 26.9422 12.1373 26.924 12.0443C26.9059 11.9513 26.8691 11.8627 26.8156 11.7836C26.7622 11.7044 26.6933 11.6362 26.6127 11.5829C26.5322 11.5296 26.4416 11.4922 26.3462 11.4729C26.2508 11.4536 26.1524 11.4527 26.0566 11.4704C25.9609 11.488 25.8696 11.5237 25.7881 11.5756C25.7065 11.6275 25.6363 11.6944 25.5814 11.7727C25.5266 11.8509 25.4881 11.9388 25.4682 12.0315C25.2008 13.2746 24.5203 14.398 23.5313 15.2289C22.5423 16.0598 21.2996 16.5522 19.9944 16.6304C18.6891 16.7085 17.3936 16.3681 16.307 15.6615C15.2204 14.9549 14.4029 13.9213 13.9802 12.7195C13.5575 11.5177 13.5531 10.2143 13.9676 9.00982C14.3821 7.80534 15.1925 6.76644 16.2743 6.05288C17.3561 5.33933 18.6493 4.99064 19.9551 5.06044C21.2608 5.13023 22.5068 5.61465 23.5014 6.43919C23.5755 6.50071 23.6613 6.54746 23.754 6.57678C23.8467 6.60609 23.9444 6.61738 24.0415 6.61002C24.1387 6.60266 24.2335 6.57678 24.3203 6.53387C24.4072 6.49095 24.4845 6.43184 24.5479 6.35991C24.6112 6.28797 24.6594 6.20463 24.6896 6.11462C24.7197 6.02462 24.7314 5.92973 24.7238 5.83536C24.7162 5.74099 24.6896 5.64899 24.6454 5.56463C24.6012 5.48026 24.5403 5.40517 24.4662 5.34365C23.5536 4.58679 22.4661 4.05531 21.2963 3.79446C20.1266 3.5336 18.9093 3.5511 17.748 3.84546C16.5868 4.13982 15.516 4.70232 14.6267 5.48508C13.7375 6.26784 13.0563 7.24767 12.6409 8.34116C12.2256 9.43465 12.0885 10.6094 12.2413 11.7654C12.3941 12.9214 12.8323 14.0245 13.5186 14.9806C14.2049 15.9368 15.1189 16.7178 16.1829 17.257C17.2468 17.7963 18.4292 18.0779 19.6294 18.0779Z" fill="#1D222D"/>
<path d="M19.594 15.1848C19.7908 15.1848 19.9796 15.1089 20.1188 14.9737C20.258 14.8385 20.3362 14.6552 20.3362 14.464V14.1037C20.7203 13.9707 21.0611 13.741 21.3238 13.4381C21.5864 13.1351 21.7615 12.7699 21.8309 12.3796C22.0039 11.3814 21.4472 10.4804 20.4467 10.1367C19.9465 9.96511 19.3951 9.75898 19.096 9.53122C19.0626 9.50599 19.0217 9.4022 19.0522 9.26238C19.0655 9.19463 19.1264 8.96759 19.3542 8.902C19.8508 8.75785 20.0964 8.902 20.2033 9.00219C20.2727 9.06868 20.3549 9.12125 20.4452 9.15689C20.5355 9.19253 20.6322 9.21055 20.7297 9.20991C20.8272 9.20927 20.9236 9.19 21.0134 9.15318C21.1032 9.11637 21.1847 9.06273 21.2531 8.99534C21.3216 8.92795 21.3757 8.84812 21.4124 8.76041C21.4491 8.67271 21.4677 8.57884 21.467 8.48417C21.4664 8.3895 21.4465 8.29588 21.4086 8.20866C21.3707 8.12144 21.3155 8.04233 21.2461 7.97584C20.9918 7.73536 20.6787 7.56173 20.3362 7.47131V7.22698C20.3362 7.03582 20.258 6.8525 20.1188 6.71733C19.9796 6.58216 19.7908 6.50623 19.594 6.50623C19.3971 6.50623 19.2084 6.58216 19.0692 6.71733C18.93 6.8525 18.8518 7.03582 18.8518 7.22698V7.54339C17.4513 8.01692 17.1277 9.86276 18.1801 10.6642C18.6462 11.0196 19.3067 11.2733 19.9517 11.4945C20.3629 11.6387 20.4044 11.927 20.3673 12.1432C20.3379 12.3227 20.2433 12.4861 20.1007 12.6037C19.958 12.7214 19.7767 12.7856 19.5895 12.7847C19.07 12.789 18.9319 12.7674 18.5453 12.5223C18.4637 12.4703 18.3724 12.4343 18.2766 12.4165C18.1808 12.3987 18.0823 12.3994 17.9867 12.4186C17.8911 12.4378 17.8004 12.4751 17.7197 12.5283C17.639 12.5815 17.5698 12.6497 17.5162 12.7288C17.4626 12.808 17.4256 12.8967 17.4073 12.9897C17.3889 13.0828 17.3897 13.1785 17.4094 13.2713C17.4292 13.3641 17.4675 13.4522 17.5223 13.5306C17.5772 13.609 17.6473 13.6761 17.7289 13.7282C18.1497 13.9963 18.4814 14.1246 18.8481 14.1829V14.4712C18.8481 14.6624 18.9263 14.8457 19.0655 14.9809C19.2046 15.1161 19.3934 15.192 19.5903 15.192L19.594 15.1848Z" fill="#1D222D"/>
<path d="M2.2325 34C1.64059 33.9994 1.07308 33.7708 0.654535 33.3644C0.235988 32.9579 0.000589459 32.4068 0 31.832V22.424C0.000785475 21.8492 0.236247 21.2982 0.654752 20.8918C1.07326 20.4854 1.64065 20.2567 2.2325 20.256H5.21312C5.80498 20.2567 6.37237 20.4854 6.79087 20.8918C7.20938 21.2982 7.44484 21.8492 7.44562 22.424V31.832C7.44504 32.4068 7.20964 32.9579 6.79109 33.3644C6.37254 33.7708 5.80504 33.9994 5.21312 34H2.2325Z" fill="#64E39D"/>
<path d="M30.5702 14.4689C34.6843 14.4571 38.0096 11.2086 37.9974 7.21331C37.9852 3.218 34.6401 -0.0112238 30.526 0.000630514C26.4118 0.0124849 23.0866 3.26093 23.0988 7.25624C23.111 11.2516 26.456 14.4808 30.5702 14.4689Z" fill="#64E39D"/>
<path d="M3.72266 23.1512C3.57587 23.1512 3.43237 23.1935 3.31032 23.2727C3.18827 23.3519 3.09314 23.4645 3.03696 23.5962C2.98079 23.7279 2.96609 23.8728 2.99473 24.0126C3.02337 24.1524 3.09405 24.2808 3.19785 24.3816C3.30165 24.4824 3.43389 24.5511 3.57786 24.5789C3.72183 24.6067 3.87106 24.5924 4.00668 24.5379C4.1423 24.4833 4.25821 24.391 4.33976 24.2724C4.42132 24.1539 4.46484 24.0145 4.46484 23.872C4.46484 23.6808 4.38665 23.4975 4.24746 23.3623C4.10828 23.2272 3.9195 23.1512 3.72266 23.1512Z" fill="#1D222D"/>
<path d="M28.6535 10.1064C29.0744 10.3738 29.4061 10.5028 29.7728 10.5612V10.8459C29.7728 11.037 29.851 11.2204 29.9901 11.3555C30.1293 11.4907 30.3181 11.5666 30.5149 11.5666C30.7118 11.5666 30.9006 11.4907 31.0398 11.3555C31.1789 11.2204 31.2571 11.037 31.2571 10.8459V10.4855C31.6413 10.3526 31.9821 10.1229 32.2448 9.81992C32.5074 9.51698 32.6824 9.15169 32.7519 8.76146C32.9248 7.76322 32.3682 6.86156 31.367 6.51849C30.8675 6.34695 30.316 6.14081 30.0169 5.91305C29.9835 5.88783 29.9464 5.78404 29.9732 5.64349C29.9865 5.57574 30.0474 5.34943 30.2752 5.28312C30.7717 5.13897 31.0174 5.28312 31.1243 5.38402C31.1937 5.45051 31.2759 5.50308 31.3662 5.53872C31.4565 5.57436 31.5532 5.59238 31.6507 5.59175C31.7481 5.59111 31.8445 5.57183 31.9344 5.53502C32.0242 5.4982 32.1056 5.44457 32.1741 5.37718C32.2426 5.30979 32.2967 5.22996 32.3334 5.14225C32.3701 5.05454 32.3887 4.96068 32.388 4.86601C32.3874 4.77134 32.3675 4.67772 32.3296 4.5905C32.2917 4.50328 32.2365 4.42417 32.1671 4.35767C31.9128 4.11719 31.5996 3.94356 31.2571 3.85315V3.60881C31.2571 3.41766 31.1789 3.23433 31.0398 3.09916C30.9006 2.964 30.7118 2.88806 30.5149 2.88806C30.3181 2.88806 30.1293 2.964 29.9901 3.09916C29.851 3.23433 29.7728 3.41766 29.7728 3.60881V3.92522C28.3723 4.39876 28.0487 6.24388 29.1048 7.04608C29.5709 7.40068 30.2322 7.65439 30.8764 7.87638C31.2876 8.01693 31.3291 8.30451 31.292 8.52145C31.2626 8.70095 31.168 8.8643 31.0253 8.98196C30.8827 9.09961 30.7014 9.1638 30.5142 9.16292C29.9947 9.16725 29.8566 9.14562 29.4699 8.89985C29.3052 8.79519 29.1044 8.75838 28.9117 8.79751C28.719 8.83664 28.5502 8.94851 28.4424 9.10851C28.3346 9.2685 28.2967 9.46352 28.337 9.65066C28.3773 9.8378 28.4925 10.0017 28.6573 10.1064H28.6535Z" fill="#1D222D"/>
</g>
<defs>
<clipPath id="clip0_1_541">
<rect width="38" height="34" fill="white"/>
</clipPath>
</defs>
</svg>
