<svg width="36" height="34" viewBox="0 0 36 34" fill="none" xmlns="http://www.w3.org/2000/svg">
<g clip-path="url(#clip0_1_484)">
<path d="M28.4941 14.1164H23.2474V19.475H28.4941V14.1164Z" fill="#FFA2A0"/>
<path d="M12.7534 14.1164H7.506V19.475H12.7534V14.1164Z" fill="#FFA2A0"/>
<path d="M20.6235 0.720886H15.3768V6.07952H20.6235V0.720886Z" fill="#FFA2A0"/>
<path d="M0.703125 26.792H1.54688V14.1167C1.54688 13.9262 1.62095 13.7436 1.75282 13.609C1.88468 13.4743 2.06352 13.3986 2.25 13.3986H9.42188V0.72117C9.42188 0.530737 9.49595 0.348105 9.62782 0.213448C9.75968 0.0787923 9.93852 0.00314331 10.125 0.00314331H25.8708C26.0573 0.00314331 26.2361 0.0787923 26.368 0.213448C26.4998 0.348105 26.5739 0.530737 26.5739 0.72117V13.3958H33.7409C33.9273 13.3958 34.1062 13.4714 34.238 13.6061C34.3699 13.7407 34.444 13.9234 34.444 14.1138V26.792H35.2969C35.4834 26.792 35.6622 26.8676 35.7941 27.0023C35.9259 27.137 36 27.3196 36 27.51V30.3936C36 30.5841 35.9259 30.7667 35.7941 30.9013C35.6622 31.036 35.4834 31.1116 35.2969 31.1116H33.1762V33.2743C33.1762 33.4648 33.1022 33.6474 32.9703 33.7821C32.8384 33.9167 32.6596 33.9924 32.4731 33.9924H29.6473C29.4608 33.9924 29.2819 33.9167 29.1501 33.7821C29.0182 33.6474 28.9441 33.4648 28.9441 33.2743V31.1167H7.05867V33.2794C7.05867 33.4698 6.98459 33.6524 6.85273 33.7871C6.72087 33.9217 6.54203 33.9974 6.35555 33.9974H3.52969C3.34321 33.9974 3.16436 33.9217 3.03251 33.7871C2.90064 33.6524 2.82656 33.4698 2.82656 33.2794V31.1167H0.703125C0.516644 31.1167 0.337803 31.041 0.20594 30.9064C0.0740776 30.7717 0 30.5891 0 30.3986V27.5122C-0.000278473 27.4177 0.017704 27.3241 0.0529137 27.2367C0.0881271 27.1494 0.139874 27.07 0.205193 27.0031C0.270512 26.9362 0.348118 26.8831 0.433563 26.8469C0.519009 26.8106 0.610611 26.792 0.703125 26.792ZM2.96156 26.792H17.2969V14.8376H2.96719L2.96156 26.792ZM25.1648 1.44207H10.8352V13.3958H25.1648V1.44207ZM33.0356 14.8376H18.7031V26.792H33.0356V14.8376ZM30.3532 32.5585H31.7644V31.1167H30.3532V32.5585ZM4.23562 32.5585H5.6468V31.1167H4.23562V32.5585ZM1.41187 29.6749H34.5881V28.2331H1.41187V29.6749Z" fill="#1D222D"/>
</g>
<defs>
<clipPath id="clip0_1_484">
<rect width="36" height="34" fill="white" transform="matrix(-1 0 0 1 36 0)"/>
</clipPath>
</defs>
</svg>
