<svg width="30" height="38" viewBox="0 0 30 38" fill="none" xmlns="http://www.w3.org/2000/svg">
<g clip-path="url(#clip0_1_411)">
<path d="M0.768555 20.3471H29.2308V26.6097H0.768555V20.3471Z" fill="#B3BAFF"/>
<path d="M4.83057 29.8471H8.99047V33.8645H4.83057V29.8471Z" fill="#B3BAFF"/>
<path d="M12.2773 29.8471H16.4372V33.8645H12.2773V29.8471Z" fill="#B3BAFF"/>
<path d="M15.9797 8.3318L15.6623 8.2227V6.06665C15.8607 6.12377 16.0364 6.23763 16.1664 6.39321C16.2245 6.47294 16.2983 6.54084 16.3835 6.59303C16.4688 6.64522 16.5638 6.68069 16.6633 6.6974C16.7627 6.71411 16.8646 6.71174 16.9631 6.69043C17.0616 6.66912 17.1548 6.62928 17.2373 6.57319C17.3199 6.5171 17.3902 6.44585 17.4442 6.36352C17.4983 6.28119 17.535 6.18938 17.5523 6.09335C17.5696 5.99731 17.5672 5.89892 17.5451 5.8038C17.523 5.70867 17.4818 5.61868 17.4237 5.53895C17.0817 5.06915 16.4654 4.67579 15.6623 4.53997V4.42938C15.6623 4.23254 15.5813 4.04376 15.4372 3.90458C15.2931 3.76539 15.0976 3.68719 14.8938 3.68719C14.69 3.68719 14.4945 3.76539 14.3504 3.90458C14.2062 4.04376 14.1253 4.23254 14.1253 4.42938V4.59489C14.0254 4.61716 13.9239 4.64313 13.8179 4.67282C12.8911 4.94149 12.1917 5.80911 12.1172 6.78286C12.0403 7.7477 12.5737 8.58044 13.5358 9.01759C13.6657 9.07622 13.8671 9.15712 14.1214 9.2536V11.8513C13.7787 11.7451 13.4667 11.5744 13.2615 11.328C13.1335 11.1748 12.9477 11.0769 12.745 11.056C12.5423 11.035 12.3393 11.0927 12.1806 11.2163C12.0219 11.3399 11.9206 11.5194 11.8989 11.7151C11.8772 11.9109 11.9369 12.107 12.0649 12.2602C12.5921 12.8911 13.3652 13.2325 14.1214 13.3816V13.4447C14.1214 13.6416 14.2024 13.8304 14.3465 13.9695C14.4907 14.1087 14.6861 14.1869 14.8899 14.1869C15.0938 14.1869 15.2892 14.1087 15.4334 13.9695C15.5775 13.8304 15.6584 13.6416 15.6584 13.4447V13.4373C17.2585 13.228 17.9586 12.2142 18.0777 11.308C18.2445 10.0329 17.3807 8.80755 15.9758 8.32958L15.9797 8.3318ZM13.6534 6.89196C13.6655 6.74089 13.7147 6.59476 13.7968 6.46569C13.879 6.33663 13.9919 6.22833 14.1261 6.14977V7.64454C13.7879 7.46641 13.6288 7.21481 13.6534 6.89196ZM16.5568 11.1224C16.503 11.5269 16.1833 11.8119 15.6623 11.9307V9.80801C16.3532 10.119 16.6137 10.6912 16.5568 11.1232V11.1224Z" fill="#1D222D"/>
<path d="M27.2572 15.5407H21.2437C21.857 15.0017 22.3933 14.3862 22.8383 13.7104C23.7765 12.2837 24.2742 10.6283 24.2731 8.93816C24.2708 4.00781 20.1117 0 14.9996 0C9.88754 0 5.72841 4.00781 5.72841 8.93816C5.72662 10.6281 6.22352 12.2835 7.1609 13.7104C7.60524 14.386 8.14072 15.0015 8.75323 15.5407H2.74201C2.01504 15.5414 1.31807 15.8207 0.804016 16.3172C0.289965 16.8136 0.00081363 17.4867 0 18.1888V35.3519C0.00081363 36.054 0.289965 36.7271 0.804016 37.2235C1.31807 37.72 2.01504 37.9992 2.74201 38H27.2572C27.9842 37.9992 28.6812 37.72 29.1952 37.2235C29.7093 36.7271 29.9984 36.054 29.9992 35.3519V18.1888C29.9986 17.4866 29.7095 16.8134 29.1954 16.3169C28.6813 15.8204 27.9843 15.5413 27.2572 15.5407ZM7.26542 8.93519C7.26542 4.82793 10.7352 1.48438 14.9996 1.48438C19.264 1.48438 22.7338 4.82793 22.7338 8.93816C22.7374 10.3011 22.3519 11.6387 21.6198 12.804C20.8877 13.9693 19.8373 14.9172 18.5839 15.5436H11.413C10.16 14.9169 9.11008 13.9688 8.37842 12.8036C7.64675 11.6383 7.26166 10.3009 7.26542 8.93816V8.93519ZM28.4622 35.3519C28.4618 35.6604 28.3347 35.9562 28.1088 36.1743C27.8829 36.3925 27.5767 36.5152 27.2572 36.5156H2.74201C2.42249 36.5154 2.11611 36.3928 1.89017 36.1746C1.66423 35.9564 1.53721 35.6605 1.537 35.3519V18.1888C1.53721 17.8802 1.66423 17.5843 1.89017 17.3661C2.11611 17.1479 2.42249 17.0252 2.74201 17.025H27.2572C27.5767 17.0252 27.8831 17.1479 28.1091 17.3661C28.335 17.5843 28.462 17.8802 28.4622 18.1888V35.3519Z" fill="#1D222D"/>
<path d="M25.3806 29.7216H20.4868C20.2829 29.7216 20.0875 29.7998 19.9434 29.939C19.7992 30.0782 19.7183 30.267 19.7183 30.4638C19.7183 30.6607 19.7992 30.8495 19.9434 30.9886C20.0875 31.1278 20.2829 31.206 20.4868 31.206H25.3806C25.5844 31.206 25.7799 31.1278 25.924 30.9886C26.0681 30.8495 26.1491 30.6607 26.1491 30.4638C26.1491 30.267 26.0681 30.0782 25.924 29.939C25.7799 29.7998 25.5844 29.7216 25.3806 29.7216Z" fill="#1D222D"/>
<path d="M25.3806 32.5078H20.4868C20.2829 32.5078 20.0875 32.586 19.9434 32.7252C19.7992 32.8644 19.7183 33.0532 19.7183 33.25C19.7183 33.4468 19.7992 33.6356 19.9434 33.7748C20.0875 33.914 20.2829 33.9922 20.4868 33.9922H25.3806C25.5844 33.9922 25.7799 33.914 25.924 33.7748C26.0681 33.6356 26.1491 33.4468 26.1491 33.25C26.1491 33.0532 26.0681 32.8644 25.924 32.7252C25.7799 32.586 25.5844 32.5078 25.3806 32.5078Z" fill="#1D222D"/>
</g>
<defs>
<clipPath id="clip0_1_411">
<rect width="30" height="38" fill="white"/>
</clipPath>
</defs>
</svg>
