<svg width="126" height="41" viewBox="0 0 126 41" fill="none" xmlns="http://www.w3.org/2000/svg">
<g clip-path="url(#clip0_172_463)">
<path d="M11.7505 26.6137C10.2075 26.615 8.6793 26.3116 7.2534 25.721C5.8275 25.1304 4.53184 24.2641 3.44051 23.1716C2.34918 22.0791 1.48358 20.7819 0.893229 19.3541C0.302878 17.9264 -0.000647848 16.396 1.03821e-06 14.8507V-1.52588e-05H7.39958V14.8507C7.40218 16.0108 7.8635 17.1226 8.6826 17.9429C9.50169 18.7632 10.6119 19.2252 11.7703 19.2278C12.3417 19.2366 12.9088 19.127 13.4359 18.906C13.9631 18.6849 14.4389 18.3572 14.8337 17.9434C15.2474 17.5432 15.5747 17.0622 15.7953 16.5303C16.0159 15.9983 16.1252 15.4266 16.1163 14.8507V-1.52588e-05H23.5159V14.8507C23.5172 17.9674 22.2828 20.9571 20.0841 23.1628C17.8853 25.3685 14.9021 26.6097 11.79 26.6137H11.7505Z" fill="url(#paint0_linear_172_463)"/>
<path d="M48.5857 -7.62939e-06V7.41052H33.0861V10.3747H43.6823V16.3032H33.0861V26.6483H25.6865V-7.62939e-06H48.5857Z" fill="url(#paint1_linear_172_463)"/>
<path d="M62.5659 26.6137C61.0233 26.6143 59.4956 26.3105 58.0703 25.7196C56.645 25.1287 55.3499 24.2623 54.2591 23.1698C53.1683 22.0774 52.3031 20.7804 51.7131 19.353C51.123 17.9255 50.8197 16.3956 50.8203 14.8507V-7.62939e-06H58.1952V14.8507C58.1978 16.0108 58.6592 17.1226 59.4782 17.9429C60.2973 18.7633 61.4075 19.2252 62.5659 19.2278C63.1374 19.2369 63.7045 19.1275 64.2317 18.9064C64.7589 18.6854 65.2348 18.3575 65.6293 17.9434C66.0431 17.5432 66.3703 17.0622 66.591 16.5303C66.8116 15.9983 66.9208 15.4267 66.9119 14.8507V-7.62939e-06H74.3115V14.8507C74.3128 17.9674 73.0785 20.9571 70.8797 23.1629C68.681 25.3686 65.6978 26.6098 62.5856 26.6137H62.5659Z" fill="url(#paint2_linear_172_463)"/>
<path d="M99.4058 -7.62939e-06V26.6137H92.7659L83.8864 13.9417V26.6137H76.4868V-7.62939e-06H83.176L92.0259 12.672V-7.62939e-06H99.4058Z" fill="url(#paint3_linear_172_463)"/>
<path d="M125.995 13.3093C125.986 16.8359 124.583 20.2154 122.092 22.7086C119.602 25.2018 116.227 26.6059 112.706 26.6137H101.636V-7.62939e-06H112.71C116.232 0.00912672 119.606 1.41444 122.096 3.90858C124.585 6.40273 125.987 9.78272 125.995 13.3093ZM109.011 19.2377H112.706C114.276 19.2377 115.781 18.6131 116.891 17.5013C118.002 16.3895 118.625 14.8816 118.625 13.3093C118.625 11.737 118.002 10.2291 116.891 9.11727C115.781 8.00548 114.276 7.38088 112.706 7.38088H109.011V19.2377Z" fill="url(#paint4_linear_172_463)"/>
<path d="M13.1171 41H11.0107V33.3919H14.7007C15.4556 33.3919 16.1796 33.6922 16.7133 34.2268C17.2471 34.7614 17.547 35.4864 17.547 36.2424C17.5494 36.7334 17.4242 37.2166 17.1838 37.6444C16.9434 38.0723 16.5959 38.4302 16.1756 38.683L17.547 41H15.0805L13.9558 39.093H13.0974L13.1171 41ZM13.1171 36.9835H14.7007C14.847 36.9847 14.9903 36.9423 15.1123 36.8615C15.2344 36.7807 15.3296 36.6653 15.3858 36.53C15.4419 36.3947 15.4565 36.2457 15.4276 36.102C15.3987 35.9584 15.3277 35.8267 15.2236 35.7237C15.1567 35.6525 15.0755 35.5963 14.9854 35.5589C14.8952 35.5214 14.7982 35.5035 14.7007 35.5063H13.1171V36.9835Z" fill="url(#paint5_linear_172_463)"/>
<path d="M25.8097 33.3919V35.5063H21.37V36.3511H24.3989V38.0407H21.37V38.8855H25.8097V41H19.2734V33.3919H25.8097Z" fill="url(#paint6_linear_172_463)"/>
<path d="M32.9281 33.3919L35.8139 41H33.5595L33.155 39.9378H30.1952L29.7808 41H27.5215L30.4813 33.3919H32.9281ZM31.0338 37.8382H32.3509L31.7047 36.1239L31.0338 37.8382Z" fill="url(#paint7_linear_172_463)"/>
<path d="M39.6667 33.3919V38.8855H44.1064V41H37.5405V33.3919H39.6667Z" fill="url(#paint8_linear_172_463)"/>
<path d="M56.1281 38.5693C56.1268 39.2127 55.8714 39.8295 55.4176 40.2849C54.9638 40.7403 54.3485 40.9974 53.706 41H49.5869V33.3919H53.706C54.3489 33.3932 54.9649 33.6498 55.419 34.1055C55.8731 34.5612 56.1281 35.1787 56.1281 35.8225C55.8489 36.2259 55.6993 36.7051 55.6993 37.1959C55.6993 37.6868 55.8489 38.1659 56.1281 38.5693ZM51.6884 36.2869H53.6616C53.7132 36.2879 53.7643 36.2773 53.8113 36.256C53.8582 36.2346 53.8998 36.203 53.9329 36.1634C53.9715 36.1244 54.0018 36.0781 54.0221 36.0272C54.0425 35.9763 54.0524 35.9218 54.0513 35.867C54.0525 35.8114 54.0426 35.7561 54.0223 35.7044C54.002 35.6527 53.9716 35.6055 53.9329 35.5656C53.8998 35.526 53.8582 35.4944 53.8113 35.473C53.7643 35.4517 53.7132 35.4411 53.6616 35.4421H51.6884V36.2869ZM53.6616 38.9498C53.7137 38.9509 53.7653 38.9399 53.8124 38.9176C53.8595 38.8953 53.9008 38.8623 53.9329 38.8213C54.0089 38.7414 54.0513 38.6353 54.0513 38.5249C54.0513 38.4145 54.0089 38.3084 53.9329 38.2285C53.8998 38.1889 53.8582 38.1573 53.8113 38.1359C53.7643 38.1145 53.7132 38.1039 53.6616 38.1049H51.6884V38.9498H53.6616Z" fill="url(#paint9_linear_172_463)"/>
<path d="M61.2095 41C60.3185 41 59.4641 40.6455 58.8341 40.0146C58.204 39.3837 57.8501 38.5279 57.8501 37.6356V33.3919H59.9615V37.6356C59.9814 37.9529 60.1213 38.2506 60.3527 38.4682C60.5841 38.6859 60.8896 38.807 61.2071 38.807C61.5245 38.807 61.83 38.6859 62.0614 38.4682C62.2928 38.2506 62.4327 37.9529 62.4526 37.6356V33.3919H64.5591V37.6356C64.5591 38.5262 64.2065 39.3804 63.5786 40.0111C62.9507 40.6418 62.0988 40.9974 61.2095 41Z" fill="url(#paint10_linear_172_463)"/>
<path d="M68.7127 38.263C68.069 38.263 67.4517 38.007 66.9965 37.5511C66.5414 37.0953 66.2856 36.477 66.2856 35.8324C66.2856 35.1877 66.5414 34.5695 66.9965 34.1136C67.4517 33.6578 68.069 33.4017 68.7127 33.4017H72.9255V35.5162H68.7127C68.6285 35.5162 68.5477 35.5493 68.4877 35.6085C68.4277 35.6677 68.3934 35.7481 68.3921 35.8324C68.3933 35.9159 68.4269 35.9956 68.4858 36.0547C68.5151 36.0852 68.5504 36.1093 68.5894 36.1254C68.6285 36.1416 68.6705 36.1495 68.7127 36.1486H70.9276C71.5713 36.1486 72.1887 36.4046 72.6438 36.8605C73.099 37.3163 73.3547 37.9346 73.3547 38.5792C73.3547 39.2239 73.099 39.8421 72.6438 40.298C72.1887 40.7538 71.5713 41.0099 70.9276 41.0099H66.705V38.8954H70.9276C71.011 38.8941 71.0906 38.8604 71.1495 38.8014C71.2084 38.7424 71.2421 38.6627 71.2434 38.5792C71.2443 38.5369 71.2364 38.4949 71.2203 38.4558C71.2041 38.4166 71.1801 38.3813 71.1496 38.352C71.1207 38.3227 71.086 38.2998 71.0478 38.2845C71.0097 38.2692 70.9688 38.2619 70.9276 38.263H68.7127Z" fill="url(#paint11_linear_172_463)"/>
<path d="M75.0762 33.3919H77.1875V41H75.0762V33.3919Z" fill="url(#paint12_linear_172_463)"/>
<path d="M85.4502 33.3919V41H83.5707L81.0401 37.3738V41H78.9287V33.3919H80.8329L83.3586 37.0131V33.3919H85.4502Z" fill="url(#paint13_linear_172_463)"/>
<path d="M93.7131 33.3919V35.5063H89.2734V36.3511H92.2973V38.0407H89.2734V38.8855H93.7131V41H87.1719V33.3919H93.7131Z" fill="url(#paint14_linear_172_463)"/>
<path d="M97.8768 38.263C97.2331 38.263 96.6157 38.007 96.1606 37.5511C95.7054 37.0953 95.4497 36.477 95.4497 35.8324C95.4497 35.1877 95.7054 34.5695 96.1606 34.1136C96.6157 33.6578 97.2331 33.4017 97.8768 33.4017H102.095V35.5162H97.8768C97.7934 35.5175 97.7139 35.5512 97.6549 35.6102C97.596 35.6692 97.5623 35.7489 97.5611 35.8324C97.5605 35.8739 97.5686 35.9151 97.5847 35.9533C97.6009 35.9916 97.6247 36.0261 97.6548 36.0547C97.6827 36.0856 97.7171 36.11 97.7554 36.1262C97.7938 36.1424 97.8352 36.15 97.8768 36.1486H100.092C100.735 36.1486 101.353 36.4046 101.808 36.8605C102.263 37.3163 102.519 37.9346 102.519 38.5792C102.519 39.2239 102.263 39.8421 101.808 40.298C101.353 40.7538 100.735 41.0099 100.092 41.0099H95.8542V38.8954H100.077C100.119 38.8969 100.16 38.8892 100.198 38.873C100.237 38.8568 100.271 38.8324 100.299 38.8016C100.33 38.7738 100.355 38.7395 100.373 38.7012C100.39 38.6628 100.398 38.6212 100.398 38.5792C100.398 38.5366 100.389 38.4944 100.372 38.4553C100.355 38.4162 100.33 38.3811 100.299 38.352C100.27 38.3227 100.235 38.2998 100.197 38.2845C100.159 38.2692 100.118 38.2619 100.077 38.263H97.8768Z" fill="url(#paint15_linear_172_463)"/>
<path d="M106.658 38.263C106.014 38.263 105.397 38.007 104.941 37.5511C104.486 37.0953 104.23 36.477 104.23 35.8324C104.23 35.1877 104.486 34.5695 104.941 34.1136C105.397 33.6578 106.014 33.4017 106.658 33.4017H110.875V35.5162H106.658C106.616 35.5147 106.575 35.5224 106.536 35.5386C106.498 35.5548 106.464 35.5792 106.436 35.6101C106.404 35.6378 106.379 35.6721 106.362 35.7104C106.345 35.7488 106.336 35.7904 106.337 35.8324C106.337 35.8742 106.346 35.9155 106.363 35.9538C106.38 35.992 106.405 36.0264 106.436 36.0547C106.464 36.0856 106.498 36.11 106.536 36.1262C106.575 36.1424 106.616 36.15 106.658 36.1486H108.872C109.516 36.1486 110.133 36.4046 110.589 36.8605C111.044 37.3163 111.3 37.9346 111.3 38.5792C111.3 39.2239 111.044 39.8421 110.589 40.298C110.133 40.7538 109.516 41.0099 108.872 41.0099H104.65V38.8954H108.872C108.956 38.8941 109.035 38.8604 109.094 38.8014C109.153 38.7424 109.187 38.6627 109.188 38.5792C109.189 38.5369 109.181 38.4949 109.165 38.4558C109.149 38.4166 109.125 38.3813 109.094 38.352C109.065 38.3227 109.031 38.2998 108.993 38.2845C108.954 38.2692 108.914 38.2619 108.872 38.263H106.658Z" fill="url(#paint16_linear_172_463)"/>
</g>
<defs>
<linearGradient id="paint0_linear_172_463" x1="-8.15434" y1="15.3299" x2="128.395" y2="-3.70432" gradientUnits="userSpaceOnUse">
<stop stop-color="#7A1122"/>
<stop offset="1" stop-color="#EF3D3F"/>
</linearGradient>
<linearGradient id="paint1_linear_172_463" x1="-7.71516" y1="18.4967" x2="128.839" y2="-0.542444" gradientUnits="userSpaceOnUse">
<stop stop-color="#7A1122"/>
<stop offset="1" stop-color="#EF3D3F"/>
</linearGradient>
<linearGradient id="paint2_linear_172_463" x1="-7.18253" y1="22.3008" x2="129.367" y2="3.26653" gradientUnits="userSpaceOnUse">
<stop stop-color="#7A1122"/>
<stop offset="1" stop-color="#EF3D3F"/>
</linearGradient>
<linearGradient id="paint3_linear_172_463" x1="-6.59563" y1="26.5297" x2="129.959" y2="7.49056" gradientUnits="userSpaceOnUse">
<stop stop-color="#7A1122"/>
<stop offset="1" stop-color="#EF3D3F"/>
</linearGradient>
<linearGradient id="paint4_linear_172_463" x1="-6.21559" y1="29.2321" x2="130.334" y2="10.1978" gradientUnits="userSpaceOnUse">
<stop stop-color="#7A1122"/>
<stop offset="1" stop-color="#EF3D3F"/>
</linearGradient>
<linearGradient id="paint5_linear_172_463" x1="-4.73556" y1="39.8538" x2="131.814" y2="20.8147" gradientUnits="userSpaceOnUse">
<stop stop-color="#7A1122"/>
<stop offset="1" stop-color="#EF3D3F"/>
</linearGradient>
<linearGradient id="paint6_linear_172_463" x1="-4.57787" y1="40.9852" x2="131.972" y2="21.9509" gradientUnits="userSpaceOnUse">
<stop stop-color="#7A1122"/>
<stop offset="1" stop-color="#EF3D3F"/>
</linearGradient>
<linearGradient id="paint7_linear_172_463" x1="-4.37562" y1="42.4426" x2="132.174" y2="23.4083" gradientUnits="userSpaceOnUse">
<stop stop-color="#7A1122"/>
<stop offset="1" stop-color="#EF3D3F"/>
</linearGradient>
<linearGradient id="paint8_linear_172_463" x1="-4.22761" y1="43.4949" x2="132.322" y2="24.4557" gradientUnits="userSpaceOnUse">
<stop stop-color="#7A1122"/>
<stop offset="1" stop-color="#EF3D3F"/>
</linearGradient>
<linearGradient id="paint9_linear_172_463" x1="-4.02059" y1="44.9918" x2="132.534" y2="25.9526" gradientUnits="userSpaceOnUse">
<stop stop-color="#7A1122"/>
<stop offset="1" stop-color="#EF3D3F"/>
</linearGradient>
<linearGradient id="paint10_linear_172_463" x1="-3.86734" y1="46.0787" x2="132.682" y2="27.0395" gradientUnits="userSpaceOnUse">
<stop stop-color="#7A1122"/>
<stop offset="1" stop-color="#EF3D3F"/>
</linearGradient>
<linearGradient id="paint11_linear_172_463" x1="-3.67497" y1="47.4719" x2="132.88" y2="28.4327" gradientUnits="userSpaceOnUse">
<stop stop-color="#7A1122"/>
<stop offset="1" stop-color="#EF3D3F"/>
</linearGradient>
<linearGradient id="paint12_linear_172_463" x1="-3.55172" y1="48.3364" x2="132.998" y2="29.3022" gradientUnits="userSpaceOnUse">
<stop stop-color="#7A1122"/>
<stop offset="1" stop-color="#EF3D3F"/>
</linearGradient>
<linearGradient id="paint13_linear_172_463" x1="-3.43845" y1="49.1664" x2="133.116" y2="30.1272" gradientUnits="userSpaceOnUse">
<stop stop-color="#7A1122"/>
<stop offset="1" stop-color="#EF3D3F"/>
</linearGradient>
<linearGradient id="paint14_linear_172_463" x1="-3.28062" y1="50.3027" x2="133.274" y2="31.2634" gradientUnits="userSpaceOnUse">
<stop stop-color="#7A1122"/>
<stop offset="1" stop-color="#EF3D3F"/>
</linearGradient>
<linearGradient id="paint15_linear_172_463" x1="-3.11771" y1="51.4686" x2="133.437" y2="32.4344" gradientUnits="userSpaceOnUse">
<stop stop-color="#7A1122"/>
<stop offset="1" stop-color="#EF3D3F"/>
</linearGradient>
<linearGradient id="paint16_linear_172_463" x1="-2.94985" y1="52.6741" x2="133.605" y2="33.6399" gradientUnits="userSpaceOnUse">
<stop stop-color="#7A1122"/>
<stop offset="1" stop-color="#EF3D3F"/>
</linearGradient>
<clipPath id="clip0_172_463">
<rect width="126" height="41" fill="white"/>
</clipPath>
</defs>
</svg>
